<svg xmlns="http://www.w3.org/2000/svg" width="64" height="64" viewBox="0 0 64 64" fill="none">
  <!-- Background circle -->
  <circle cx="32" cy="32" r="32" fill="#3B82F6"/>

  <!-- Calendar shape -->
  <rect x="16" y="18" width="32" height="30" rx="2" fill="white"/>

  <!-- Calendar header -->
  <rect x="16" y="18" width="32" height="8" rx="2" fill="#1E40AF"/>
  <rect x="16" y="22" width="32" height="4" fill="#1E40AF"/>

  <!-- Calendar rings -->
  <rect x="20" y="15" width="2" height="6" rx="1" fill="#1E40AF"/>
  <rect x="30" y="15" width="2" height="6" rx="1" fill="#1E40AF"/>
  <rect x="42" y="15" width="2" height="6" rx="1" fill="#1E40AF"/>

  <!-- Calendar grid dots -->
  <circle cx="22" cy="32" r="1.5" fill="#3B82F6"/>
  <circle cx="28" cy="32" r="1.5" fill="#3B82F6"/>
  <circle cx="34" cy="32" r="1.5" fill="#3B82F6"/>
  <circle cx="40" cy="32" r="1.5" fill="#3B82F6"/>

  <circle cx="22" cy="38" r="1.5" fill="#3B82F6"/>
  <circle cx="28" cy="38" r="1.5" fill="#3B82F6"/>
  <circle cx="34" cy="38" r="1.5" fill="#3B82F6"/>
  <circle cx="40" cy="38" r="1.5" fill="#3B82F6"/>

  <circle cx="22" cy="44" r="1.5" fill="#3B82F6"/>
  <circle cx="28" cy="44" r="1.5" fill="#3B82F6"/>
  <circle cx="34" cy="44" r="1.5" fill="#3B82F6"/>

  <!-- Highlight today -->
  <circle cx="34" cy="38" r="2.5" fill="#EF4444"/>
</svg>
